REM DIRINDEX 1\2,1\3
REM DIRNAME cjc140,folder01,folder02
TITLE ""
FILE "Track28.mp3" MP3
  TRACK 01 AUDIO
    TITLE "0:"
    INDEX 01 00:00:00
  TRACK 02 AUDIO
    TITLE "3:cjc140_094"
    INDEX 01 00:00:07
  TRACK 03 AUDIO
    TITLE "2:cjc140_095"
    INDEX 01 00:02:04
  TRACK 04 AUDIO
    TITLE "2:cjc140_096"
    INDEX 01 00:13:47
  TRACK 05 AUDIO
    TITLE "0:"
    INDEX 01 00:22:09
